<?xml version="1.0" encoding="utf-8"?>
<!-- Generator: Adobe Illustrator 24.3.0, SVG Export Plug-In . SVG Version: 6.00 Build 0)  -->
<svg version="1.1" id="Calque_1" xmlns="http://www.w3.org/2000/svg" xmlns:xlink="http://www.w3.org/1999/xlink" x="0px" y="0px"
	 viewBox="0 0 480 480" style="enable-background:new 0 0 480 480;" xml:space="preserve">
<style type="text/css">
	.st0{fill:#DC3545;}
	.st1{fill:#FFFFFF;}
</style>
<rect y="0" class="st0" width="480" height="480"/>
<g>
	<path class="st1" d="M102.9,385.4c-3.4,0-6.2-2.8-6.2-6.2c0-3.4,2.8-6.2,6.2-6.2h276.7c3.4,0,6.2,2.8,6.2,6.2
		c0,3.4-2.8,6.2-6.2,6.2H102.9z M243.2,346.4c-4.6,0-9-0.9-13.2-2.8l-54.9-24.3l-5.9,5.9c-1.2,1.2-2.7,1.8-4.4,1.8
		c-1.7,0-3.2-0.6-4.4-1.8L111.3,276c-1.2-1.2-1.8-2.7-1.8-4.4s0.6-3.2,1.8-4.4l3.7-3.7l-16.8-16.8c-9.9-9.9-9.9-25.9,0-35.8
		c4.8-4.8,11.1-7.4,17.9-7.4c6.8,0,13.1,2.6,17.9,7.4l16.8,16.8l73.1-73.1l-16.8-16.8c-9.9-9.9-9.9-25.9,0-35.8
		c4.8-4.8,11.1-7.4,17.9-7.4s13.1,2.6,17.9,7.4l16.8,16.8l3.1-3.1c1.2-1.2,2.7-1.8,4.4-1.8c1.7,0,3.2,0.6,4.4,1.8l49.1,49.1
		c1.2,1.2,1.8,2.7,1.8,4.4s-0.6,3.2-1.8,4.4l-5.9,5.9l24.3,54.9c5.5,12.3,2.7,26.9-6.8,36.5l-65.9,65.9
		C260.4,342.9,251.9,346.4,243.2,346.4L243.2,346.4z M235.1,332.2c2.6,1.1,5.3,1.7,8.2,1.7c5.4,0,10.6-2.2,14.4-5.9l65.9-65.9
		c5.9-5.9,7.6-15,4.2-22.6L305.3,189l-56.3,56.3c5.1,6.1,7.9,13.7,7.9,21.7c0,9-3.5,17.5-9.9,23.9c-6.4,6.4-14.9,9.9-23.9,9.9
		c-8,0-15.7-2.8-21.7-7.9l-16.9,16.9L235.1,332.2z M164.8,311.9l142.6-142.6L267.2,129L124.5,271.6L164.8,311.9z M210.4,284
		c3.7,2.8,8.2,4.3,12.8,4.3c5.7,0,11-2.2,15.1-6.2c4-4,6.2-9.4,6.2-15.1c0-4.7-1.5-9.1-4.3-12.8L210.4,284z M116.1,216
		c-3.4,0-6.6,1.3-9.1,3.7c-5,5-5,13.1,0,18.1l16.8,16.8l18.1-18.1l-16.8-16.8C122.7,217.4,119.5,216,116.1,216z M225,107.1
		c-3.4,0-6.6,1.3-9.1,3.7c-2.4,2.4-3.7,5.6-3.7,9.1c0,3.4,1.3,6.6,3.7,9.1l16.8,16.8l18.1-18.1L234,110.9
		C231.6,108.4,228.4,107.1,225,107.1z M337.6,344.6c-2.7,0-5-1.7-5.9-4.2l-8.4-24.1c-0.8-2.3-0.2-4.9,1.6-6.6
		c1.2-1.1,2.7-1.7,4.3-1.7c0.8,0,1.7,0.2,2.4,0.5l24.6,10.5l-9.7-17.8c-0.9-1.6-1-3.5-0.3-5.2c0.7-1.7,2-3,3.8-3.6l30.9-10.8
		c0.7-0.2,1.4-0.4,2.1-0.4c2.7,0,5,1.7,5.9,4.2c1.1,3.3-0.6,6.8-3.8,8l-24,8.4l14.8,27.1c1.3,2.3,0.9,5.2-0.9,7.2
		c-1.2,1.3-2.9,2-4.6,2c-0.8,0-1.7-0.2-2.4-0.5l-28.2-12l3.8,10.8c1.1,3.3-0.6,6.8-3.8,7.9C339,344.5,338.3,344.6,337.6,344.6z
		 M184,343.5c-1.7,0-3.2-0.6-4.4-1.8s-1.8-2.7-1.8-4.4c0-1.7,0.6-3.2,1.8-4.4l3.1-3.1c1.2-1.2,2.7-1.8,4.4-1.8
		c1.7,0,3.2,0.6,4.4,1.8c2.4,2.4,2.4,6.4,0,8.8l-3.1,3.1C187.3,342.8,185.7,343.5,184,343.5z M166.6,285.5
		c-9.6,0-17.3-7.8-17.3-17.3s7.8-17.3,17.3-17.3s17.3,7.8,17.3,17.3S176.2,285.5,166.6,285.5z M166.6,263.3c-2.7,0-4.9,2.2-4.9,4.9
		s2.2,4.9,4.9,4.9s4.9-2.2,4.9-4.9S169.3,263.3,166.6,263.3z M329.7,197.8c-1.7,0-3.2-0.6-4.4-1.8c-2.4-2.4-2.4-6.4,0-8.8l3.1-3.1
		c1.2-1.2,2.7-1.8,4.4-1.8s3.2,0.6,4.4,1.8c2.4,2.4,2.4,6.4,0,8.8l-3.1,3.1C332.9,197.2,331.4,197.8,329.7,197.8z M264.3,187.8
		c-9.6,0-17.3-7.8-17.3-17.3c0-9.6,7.8-17.3,17.3-17.3s17.3,7.8,17.3,17.3C281.6,180,273.9,187.8,264.3,187.8z M264.3,165.6
		c-2.7,0-4.9,2.2-4.9,4.9s2.2,4.9,4.9,4.9s4.9-2.2,4.9-4.9S267,165.6,264.3,165.6z"/>
	<path class="st1" d="M225,96.1c6.1,0,12.2,2.3,16.8,7l17.9,17.9l4.2-4.2c0.9-0.9,2.1-1.4,3.4-1.4s2.4,0.5,3.4,1.4l49.1,49.1
		c0.9,0.9,1.4,2.1,1.4,3.4c0,1.3-0.5,2.5-1.4,3.4l-6.6,6.6l24.8,55.8c5.2,11.7,2.6,25.7-6.5,34.8l-65.9,65.9c-6,6-14,9.1-22.2,9.1
		c-4.3,0-8.6-0.9-12.6-2.7l-55.8-24.8l-6.6,6.6c-0.9,0.9-2.1,1.4-3.4,1.4c-1.3,0-2.5-0.5-3.4-1.4l-49.1-49.1c-1.9-1.9-1.9-4.9,0-6.7
		l4.7-4.7l-17.9-17.9c-9.3-9.3-9.3-24.4,0-33.6c4.6-4.6,10.7-7,16.8-7c6.1,0,12.2,2.3,16.8,7l17.9,17.9l75.3-75.3l-17.9-17.9
		c-9.3-9.3-9.3-24.4,0-33.6C212.8,98.5,218.9,96.1,225,96.1 M232.7,147.9l20.2-20.2l-17.9-17.9c-2.8-2.8-6.5-4.2-10.1-4.2
		c-3.7,0-7.3,1.4-10.1,4.2c-5.6,5.6-5.6,14.7,0,20.2L232.7,147.9 M164.8,314l144.8-144.8l-42.4-42.4L263,131l-26.9,26.9l-82,82
		c0,0,0,0,0,0l-26.9,26.9c0,0,0,0,0,0l-4.7,4.7L164.8,314 M223.2,299.3c-8.1,0-15.8-3-21.8-8.5L182,310.3l52.5,23.3
		c2.8,1.2,5.8,1.8,8.8,1.8c5.7,0,11.3-2.2,15.5-6.4l65.9-65.9c6.3-6.3,8.1-16.1,4.5-24.2l-23.3-52.5L247,245.3
		c5.5,6,8.5,13.6,8.5,21.8c0,8.6-3.4,16.7-9.4,22.8C239.9,296,231.8,299.3,223.2,299.3C223.2,299.3,223.2,299.3,223.2,299.3
		 M123.8,256.8l20.2-20.2l-17.9-17.9c-2.8-2.8-6.5-4.2-10.1-4.2c-3.7,0-7.3,1.4-10.1,4.2c-5.6,5.6-5.6,14.7,0,20.2L123.8,256.8
		 M223.2,289.8C223.2,289.8,223.2,289.8,223.2,289.8c6.1,0,11.8-2.4,16.1-6.7c4.3-4.3,6.7-10,6.7-16.1c0-5.6-2-10.9-5.7-15.1
		l-32.2,32.2C212.3,287.8,217.6,289.8,223.2,289.8 M264.3,154.6c8.7,0,15.8,7.1,15.8,15.8c0,8.7-7.1,15.8-15.8,15.8
		c-8.7,0-15.8-7.1-15.8-15.8C248.4,161.7,255.6,154.6,264.3,154.6 M264.3,176.8c3.5,0,6.4-2.9,6.4-6.4c0-3.5-2.9-6.4-6.4-6.4
		c-3.5,0-6.4,2.9-6.4,6.4C257.9,174,260.8,176.8,264.3,176.8 M332.8,183.7c1.2,0,2.4,0.5,3.4,1.4c1.9,1.9,1.9,4.9,0,6.7l-3.1,3.1
		c-0.9,0.9-2.1,1.4-3.4,1.4s-2.4-0.5-3.4-1.4c-1.9-1.9-1.9-4.9,0-6.7l3.1-3.1C330.4,184.2,331.6,183.7,332.8,183.7 M166.6,252.3
		c8.7,0,15.8,7.1,15.8,15.8c0,8.7-7.1,15.8-15.8,15.8c-8.7,0-15.8-7.1-15.8-15.8C150.8,259.4,157.9,252.3,166.6,252.3 M166.6,274.5
		c3.5,0,6.4-2.9,6.4-6.4s-2.9-6.4-6.4-6.4s-6.4,2.9-6.4,6.4S163.1,274.5,166.6,274.5 M383,282.7c2,0,3.8,1.2,4.5,3.2
		c0.9,2.5-0.4,5.2-2.9,6l-25.6,9l15.6,28.6c1,1.8,0.7,4-0.6,5.5c-0.9,1-2.2,1.6-3.5,1.6c-0.6,0-1.3-0.1-1.9-0.4l-31.3-13.3l4.9,14
		c0.9,2.5-0.4,5.2-2.9,6c-0.5,0.2-1,0.3-1.6,0.3c-2,0-3.8-1.2-4.5-3.2l-8.4-24.1c-0.6-1.8-0.1-3.7,1.2-5c0.9-0.8,2.1-1.3,3.2-1.3
		c0.6,0,1.3,0.1,1.9,0.4l28.6,12.2l-11.8-21.6c-0.7-1.2-0.8-2.7-0.3-4c0.5-1.3,1.5-2.3,2.9-2.8l30.9-10.8
		C381.9,282.8,382.5,282.7,383,282.7 M187.2,329.4c1.2,0,2.4,0.5,3.4,1.4c1.9,1.9,1.9,4.9,0,6.7l-3.1,3.1c-0.9,0.9-2.1,1.4-3.4,1.4
		c-1.2,0-2.4-0.5-3.4-1.4c-1.9-1.9-1.9-4.9,0-6.7l3.1-3.1C184.7,329.8,186,329.4,187.2,329.4 M379.6,374.4c2.6,0,4.7,2.1,4.7,4.7
		c0,2.6-2.1,4.7-4.7,4.7H102.9c-2.6,0-4.7-2.1-4.7-4.7c0-2.6,2.1-4.7,4.7-4.7H379.6 M225,93.1c-7.2,0-13.9,2.8-18.9,7.8
		c-10.4,10.4-10.4,27.4,0,37.9l15.7,15.7l-71,71L135,209.9c-5.1-5.1-11.8-7.8-18.9-7.8c-7.2,0-13.9,2.8-18.9,7.8
		c-10.4,10.4-10.4,27.4,0,37.9l15.7,15.7l-2.6,2.6c-1.5,1.5-2.3,3.4-2.3,5.5c0,2.1,0.8,4,2.3,5.5l49.1,49.1c1.5,1.5,3.4,2.3,5.5,2.3
		c2.1,0,4-0.8,5.5-2.3l5.2-5.2l12.1,5.4c-0.1,0-0.3,0-0.4,0c-2.1,0-4,0.8-5.5,2.3l-3.1,3.1c-1.5,1.5-2.3,3.4-2.3,5.5s0.8,4,2.3,5.5
		c1.5,1.5,3.4,2.3,5.5,2.3c2.1,0,4-0.8,5.5-2.3l3.1-3.1c1.5-1.5,2.3-3.4,2.3-5.5c0-2.1-0.8-4-2.3-5.5c0,0,0,0,0,0l36.8,16.3
		c4.4,1.9,9,2.9,13.8,2.9c9.1,0,18-3.6,24.3-10l65.9-65.9c9.9-9.9,12.8-25.3,7.1-38.1L324.2,197c0,0,0,0,0,0
		c1.5,1.5,3.4,2.3,5.5,2.3c2.1,0,4-0.8,5.5-2.3l3.1-3.1c1.5-1.5,2.3-3.4,2.3-5.5c0-2.1-0.8-4-2.3-5.5c-1.5-1.5-3.4-2.3-5.5-2.3
		c-2.1,0-4,0.8-5.5,2.3l-3.1,3.1c-1.6,1.6-2.4,3.8-2.3,5.9l-5.4-12.1l5.2-5.2c1.5-1.5,2.3-3.4,2.3-5.5c0-2.1-0.8-4-2.3-5.5
		l-49.1-49.1c-1.5-1.5-3.4-2.3-5.5-2.3s-4,0.8-5.5,2.3l-2,2L243.9,101C238.9,95.9,232.1,93.1,225,93.1L225,93.1z M232.7,143.6
		L217,127.9c-4.4-4.4-4.4-11.6,0-16c2.1-2.1,5-3.3,8-3.3c3,0,5.9,1.2,8,3.3l15.7,15.7L232.7,143.6L232.7,143.6z M156.3,242
		l81.9-81.9l26.9-26.9l2-2l38.2,38.2L164.8,309.8l-38.2-38.2l2.5-2.5l0,0l0.1-0.1L156.3,242L156.3,242L156.3,242L156.3,242z
		 M251.1,245.4l53.8-53.8l21.5,48.5c3.1,7.1,1.6,15.5-3.9,20.9l-65.9,65.9c-3.5,3.5-8.3,5.5-13.3,5.5c-2.6,0-5.2-0.5-7.6-1.6
		l-48.5-21.5l14.4-14.4c6.2,4.8,13.7,7.4,21.6,7.4h0c9.4,0,18.3-3.7,24.9-10.3c6.7-6.7,10.3-15.5,10.3-25
		C258.5,259.2,255.9,251.6,251.1,245.4L251.1,245.4z M123.8,252.6l-15.7-15.7c-4.4-4.4-4.4-11.6,0-16c2.1-2.1,5-3.3,8-3.3
		s5.9,1.2,8,3.3l15.7,15.7L123.8,252.6L123.8,252.6z M212.7,283.8l27.3-27.3c2,3.1,3,6.8,3,10.5c0,5.3-2.1,10.3-5.8,14
		c-3.7,3.7-8.7,5.8-14,5.8l0,3v-3C219.4,286.8,215.8,285.8,212.7,283.8L212.7,283.8z M264.3,151.6c-10.4,0-18.8,8.5-18.8,18.8
		c0,10.4,8.5,18.8,18.8,18.8c10.4,0,18.8-8.5,18.8-18.8C283.1,160.1,274.7,151.6,264.3,151.6L264.3,151.6z M264.3,173.8
		c-1.9,0-3.4-1.5-3.4-3.4c0-1.9,1.5-3.4,3.4-3.4c1.9,0,3.4,1.5,3.4,3.4C267.6,172.3,266.1,173.8,264.3,173.8L264.3,173.8z
		 M166.6,249.3c-10.4,0-18.8,8.5-18.8,18.8c0,10.4,8.5,18.8,18.8,18.8c10.4,0,18.8-8.5,18.8-18.8C185.5,257.8,177,249.3,166.6,249.3
		L166.6,249.3z M166.6,271.5c-1.9,0-3.4-1.5-3.4-3.4c0-1.9,1.5-3.4,3.4-3.4c1.9,0,3.4,1.5,3.4,3.4C170,270,168.5,271.5,166.6,271.5
		L166.6,271.5z M383,279.7c-0.9,0-1.7,0.1-2.6,0.4l-30.9,10.8c-2.2,0.8-3.9,2.4-4.7,4.5c-0.8,2.1-0.7,4.5,0.4,6.5l7.6,14l-20.7-8.8
		c-1-0.4-2-0.6-3-0.6c-2,0-3.9,0.7-5.3,2.1c-2.2,2.1-3,5.3-2,8.2l8.4,24.1c1.1,3.1,4,5.2,7.3,5.2c0.9,0,1.7-0.1,2.5-0.4
		c2-0.7,3.5-2.1,4.4-3.9c0.9-1.9,1-4,0.3-5.9l-2.7-7.6l25.1,10.7c1,0.4,2,0.6,3,0.6c2.2,0,4.3-0.9,5.7-2.5c2.2-2.4,2.6-6,1.1-8.9
		l-13.9-25.5l22.3-7.8c4-1.4,6.2-5.8,4.8-9.9C389.2,281.8,386.3,279.7,383,279.7L383,279.7z M379.6,371.4H102.9
		c-4.3,0-7.7,3.5-7.7,7.7s3.5,7.7,7.7,7.7h276.7c4.3,0,7.7-3.5,7.7-7.7S383.8,371.4,379.6,371.4L379.6,371.4z"/>
</g>
</svg>
