<?xml version="1.0" encoding="utf-8"?>
<!-- Generator: Adobe Illustrator 25.0.0, SVG Export Plug-In . SVG Version: 6.00 Build 0)  -->
<svg version="1.1" id="Calque_1" xmlns="http://www.w3.org/2000/svg" xmlns:xlink="http://www.w3.org/1999/xlink" x="0px" y="0px"
	 viewBox="0 0 480 480" style="enable-background:new 0 0 480 480;" xml:space="preserve">
<style type="text/css">
	.st0{fill:#FFC134;}
	.st1{display:none;opacity:0.33;fill:#FFFFFF;enable-background:new    ;}
</style>
<rect class="st0" width="480" height="480"/>
<circle class="st1" cx="240" cy="240" r="240"/>
<path d="M207.4,97c-0.3,0.3-0.5,0.5-0.8,0.8l-41.8,41.6c-4.4,4-4.9,10.8-1.1,15.4c3.8,4.5,10.6,5.1,15.2,1.3
	c0.1-0.1,0.1-0.1,0.2-0.2l1.1-1.1l23-23v228.4c0,6,4.9,10.9,10.9,10.9c6,0,10.9-4.9,10.9-10.9c0,0,0,0,0,0v-44.5
	c0.1-36.8,24.5-69.2,59.9-79.4l-19.4,28.6c-3.5,4.9-2.3,11.7,2.7,15.2c0.1,0.1,0.2,0.1,0.2,0.2c4.8,3.5,11.5,2.4,15-2.4
	c0.1-0.2,0.2-0.3,0.3-0.5l33.2-48.7c0.9-1.4,1.5-3.1,1.7-4.8l-5.2-3.4l-48.8-33c-4.9-3.5-11.7-2.4-15.2,2.5
	c-0.1,0.1-0.1,0.1-0.1,0.2c-3.5,5-2.2,11.9,2.8,15.4l25.6,17.4c-21.2,6.2-39.8,19-53.3,36.4V139.1l23,23c4.6,3.9,11.5,3.2,15.4-1.4
	c3.4-4,3.4-9.9,0-14L217.3,97"/>
</svg>
