<?xml version="1.0" encoding="utf-8"?>
<!-- Generator: Adobe Illustrator 24.3.0, SVG Export Plug-In . SVG Version: 6.00 Build 0)  -->
<svg version="1.1" id="Calque_1" xmlns="http://www.w3.org/2000/svg" xmlns:xlink="http://www.w3.org/1999/xlink" x="0px" y="0px"
	 viewBox="0 0 480 480" style="enable-background:new 0 0 480 480;" xml:space="preserve">
<style type="text/css">
	.st0{fill:#FFC134;}
	.st1{display:none;opacity:0.33;fill:#FFFFFF;}
</style>
<rect y="0" class="st0" width="480" height="480"/>
<g>
	<path d="M97.5,364.9c-2.5,0-4.8-1.3-6-3.5c-1.2-2.1-1.2-4.8,0-7L234,107.6c1.2-2.1,3.5-3.5,6-3.5c2.5,0,4.8,1.3,6,3.5l142.5,246.9
		c1.2,2.1,1.2,4.8,0,7c-1.2,2.1-3.5,3.5-6,3.5H97.5z M370.5,351L240,124.9L109.5,351H370.5z"/>
	<path d="M240,106.6c1.6,0,3.1,0.8,3.9,2.2l142.5,246.9c0.8,1.4,0.8,3.1,0,4.5c-0.8,1.4-2.3,2.2-3.9,2.2H97.5
		c-1.6,0-3.1-0.8-3.9-2.2c-0.8-1.4-0.8-3.1,0-4.5l142.5-246.9C236.9,107.4,238.4,106.6,240,106.6 M105.2,353.5h269.7L240,119.9
		L105.2,353.5 M240,101.6c-3.4,0-6.5,1.8-8.2,4.7L89.3,353.2c-1.7,2.9-1.7,6.5,0,9.5c1.7,2.9,4.8,4.7,8.2,4.7h285.1
		c3.4,0,6.5-1.8,8.2-4.7c1.7-2.9,1.7-6.5,0-9.5L248.2,106.3C246.5,103.4,243.4,101.6,240,101.6L240,101.6z M113.8,348.5L240,129.9
		l126.2,218.5H113.8L113.8,348.5z"/>
</g>
<path d="M255.2,310c0,3.8-1.6,7.4-4.4,9.9c-4.4,4.1-10.8,5.3-16.4,3c-1.7-0.7-3.4-1.8-4.8-3.1c-1.4-1.2-2.5-2.7-3.2-4.4
	c-1.6-3.4-1.6-7.3,0-10.8c0.8-1.7,1.9-3.2,3.2-4.4c1.4-1.3,3-2.3,4.8-3c1.9-0.7,3.9-1.1,5.9-1.1c3.9-0.1,7.7,1.4,10.5,4
	C253.6,302.7,255.2,306.3,255.2,310z M227.4,206c0-3.1,1.3-6.1,3.7-8.2c5-4.7,12.8-4.7,17.8,0c2.3,2.1,3.7,5,3.7,8.2l-1.8,75.5
	c-0.1,2.7-1.3,5.3-3.4,7.1c-4.2,3.9-10.8,3.9-15.1,0c-2-1.8-3.1-4.4-3.1-7.1L227.4,206z"/>
<circle class="st1" cx="240" cy="240" r="240"/>
</svg>
